<!-- Generated by IcoMoon.io -->
<svg version="1.1" xmlns="http://www.w3.org/2000/svg" width="32" height="32" viewBox="0 0 32 32">
<title>check-square</title>
<path d="M5.724 5.724c0.25-0.25 0.589-0.391 0.943-0.391h14.667c0.736 0 1.333-0.597 1.333-1.333s-0.597-1.333-1.333-1.333h-14.667c-1.061 0-2.078 0.421-2.828 1.172s-1.172 1.768-1.172 2.828v18.667c0 1.061 0.421 2.078 1.172 2.828s1.768 1.172 2.828 1.172h18.667c1.061 0 2.078-0.421 2.828-1.172s1.172-1.767 1.172-2.828v-9.333c0-0.736-0.597-1.333-1.333-1.333s-1.333 0.597-1.333 1.333v9.333c0 0.354-0.141 0.693-0.391 0.943s-0.589 0.391-0.943 0.391h-18.667c-0.354 0-0.693-0.141-0.943-0.391s-0.391-0.589-0.391-0.943v-18.667c0-0.354 0.14-0.693 0.391-0.943zM16.943 19.609l13.333-13.333c0.521-0.521 0.521-1.365 0-1.886s-1.365-0.521-1.886 0l-12.391 12.391-3.057-3.057c-0.521-0.521-1.365-0.521-1.886 0s-0.521 1.365 0 1.886l4 4c0.521 0.521 1.365 0.521 1.886 0z"></path>
</svg>
