<!-- Generated by IcoMoon.io -->
<svg version="1.1" xmlns="http://www.w3.org/2000/svg" width="32" height="32" viewBox="0 0 32 32">
<title>clock</title>
<path d="M4 16c0-6.627 5.373-12 12-12s12 5.373 12 12c0 6.627-5.373 12-12 12s-12-5.373-12-12zM16 1.333c-8.1 0-14.667 6.566-14.667 14.667s6.566 14.667 14.667 14.667c8.1 0 14.667-6.567 14.667-14.667s-6.567-14.667-14.667-14.667zM17.333 8c0-0.736-0.597-1.333-1.333-1.333s-1.333 0.597-1.333 1.333v8c0 0.505 0.285 0.967 0.737 1.193l5.333 2.667c0.659 0.329 1.459 0.062 1.789-0.596s0.062-1.459-0.596-1.789l-4.596-2.298v-7.176z"></path>
</svg>
