<!-- Generated by IcoMoon.io -->
<svg version="1.1" xmlns="http://www.w3.org/2000/svg" width="32" height="32" viewBox="0 0 32 32">
<title>close</title>
<path d="M24.943 8.943c0.521-0.521 0.521-1.365 0-1.886s-1.365-0.521-1.886 0l-7.057 7.057-7.057-7.057c-0.521-0.521-1.365-0.521-1.886 0s-0.521 1.365 0 1.886l7.057 7.057-7.057 7.057c-0.521 0.521-0.521 1.365 0 1.886s1.365 0.521 1.886 0l7.057-7.057 7.057 7.057c0.521 0.521 1.365 0.521 1.886 0s0.521-1.365 0-1.886l-7.057-7.057 7.057-7.057z"></path>
</svg>
