<!-- Generated by IcoMoon.io -->
<svg version="1.1" xmlns="http://www.w3.org/2000/svg" width="32" height="32" viewBox="0 0 32 32">
<title>gps</title>
<path d="M8.458 5.791c2-2 4.713-3.124 7.542-3.124s5.542 1.124 7.543 3.124c2 2 3.124 4.713 3.124 7.542 0 4.131-2.688 8.139-5.635 11.25-1.446 1.527-2.897 2.776-3.988 3.645-0.406 0.323-0.76 0.593-1.044 0.802-0.284-0.21-0.639-0.479-1.044-0.802-1.091-0.868-2.541-2.118-3.988-3.645-2.947-3.111-5.635-7.119-5.635-11.25 0-2.829 1.124-5.542 3.124-7.542zM15.26 31.776c0 0 0.001 0.001 0.74-1.109l-0.74 1.109c0.448 0.299 1.031 0.299 1.479 0l-0.74-1.109c0.74 1.109 0.74 1.109 0.74 1.109l0.001-0.001 0.003-0.002 0.009-0.006 0.031-0.021c0.026-0.018 0.063-0.043 0.11-0.076 0.095-0.066 0.231-0.161 0.402-0.285 0.343-0.248 0.829-0.609 1.409-1.072 1.159-0.923 2.709-2.257 4.262-3.897 3.053-3.223 6.365-7.881 6.365-13.084 0-3.536-1.405-6.928-3.905-9.428s-5.892-3.905-9.428-3.905c-3.536 0-6.928 1.405-9.428 3.905s-3.905 5.892-3.905 9.428c0 5.203 3.312 9.861 6.365 13.084 1.554 1.64 3.103 2.974 4.262 3.897 0.581 0.462 1.066 0.824 1.409 1.072 0.172 0.124 0.308 0.219 0.402 0.285 0.047 0.033 0.084 0.058 0.11 0.076l0.031 0.021 0.009 0.006 0.003 0.002 0.001 0.001zM13.333 13.333c0-1.473 1.194-2.667 2.667-2.667s2.667 1.194 2.667 2.667c0 1.473-1.194 2.667-2.667 2.667s-2.667-1.194-2.667-2.667zM16 8c-2.946 0-5.333 2.388-5.333 5.333s2.388 5.333 5.333 5.333c2.945 0 5.333-2.388 5.333-5.333s-2.388-5.333-5.333-5.333z"></path>
</svg>
