<!-- Generated by IcoMoon.io -->
<svg version="1.1" xmlns="http://www.w3.org/2000/svg" width="32" height="32" viewBox="0 0 32 32">
<title>search</title>
<path d="M5.333 14.667c0 5.155 4.179 9.333 9.333 9.333 2.515 0 4.797-0.994 6.475-2.611 0.035-0.046 0.073-0.090 0.115-0.131s0.086-0.080 0.131-0.115c1.617-1.678 2.611-3.961 2.611-6.475 0-5.155-4.179-9.333-9.333-9.333s-9.333 4.179-9.333 9.333zM22.157 24.043c-2.053 1.642-4.657 2.624-7.49 2.624-6.627 0-12-5.373-12-12s5.373-12 12-12c6.627 0 12 5.373 12 12 0 2.833-0.982 5.437-2.624 7.49l4.9 4.9c0.521 0.521 0.521 1.365 0 1.886s-1.365 0.521-1.886 0l-4.9-4.9z"></path>
</svg>
