<!-- Generated by IcoMoon.io -->
<svg version="1.1" xmlns="http://www.w3.org/2000/svg" width="32" height="32" viewBox="0 0 32 32">
<title>settings</title>
<path d="M15.057 3.057c0.25-0.25 0.589-0.391 0.943-0.391s0.693 0.14 0.943 0.391c0.25 0.25 0.391 0.589 0.391 0.943v0.125c0.003 0.689 0.207 1.362 0.587 1.937 0.379 0.573 0.917 1.022 1.547 1.294 0.644 0.283 1.358 0.367 2.051 0.241 0.695-0.126 1.336-0.457 1.84-0.951v0l0.091-0.091c0.124-0.124 0.271-0.222 0.433-0.289s0.335-0.102 0.511-0.102c0.175 0 0.349 0.035 0.511 0.102s0.309 0.165 0.433 0.289l0.001 0.001c0.124 0.124 0.222 0.271 0.289 0.433s0.102 0.335 0.102 0.511-0.035 0.349-0.102 0.511c-0.067 0.162-0.165 0.309-0.289 0.433l-0.081 0.081-0-0-0.010 0.011c-0.494 0.505-0.825 1.146-0.951 1.84-0.109 0.603-0.060 1.223 0.142 1.798 0.016 0.121 0.048 0.24 0.097 0.352 0.271 0.633 0.722 1.174 1.297 1.554s1.248 0.585 1.937 0.587h0.232c0.354 0 0.693 0.141 0.943 0.391s0.391 0.589 0.391 0.943c0 0.354-0.141 0.693-0.391 0.943s-0.589 0.391-0.943 0.391h-0.125c-0.689 0.003-1.362 0.207-1.937 0.587-0.573 0.379-1.022 0.917-1.294 1.547-0.283 0.644-0.367 1.358-0.241 2.050 0.126 0.695 0.457 1.336 0.951 1.84v0l0.091 0.091c0.124 0.124 0.222 0.271 0.289 0.433s0.102 0.335 0.102 0.511-0.035 0.349-0.102 0.511c-0.067 0.162-0.165 0.309-0.289 0.433l-0.001 0.001c-0.124 0.124-0.271 0.222-0.433 0.289s-0.335 0.102-0.511 0.102-0.349-0.035-0.511-0.102c-0.162-0.067-0.309-0.165-0.433-0.289l-0.091-0.091c-0.505-0.494-1.146-0.825-1.84-0.951-0.692-0.125-1.406-0.041-2.050 0.241-0.631 0.272-1.168 0.721-1.547 1.294-0.381 0.575-0.585 1.248-0.587 1.937v0.232c0 0.354-0.141 0.693-0.391 0.943s-0.589 0.391-0.943 0.391c-0.354 0-0.693-0.141-0.943-0.391s-0.391-0.589-0.391-0.943v-0.12l-0-0.031c-0.017-0.709-0.246-1.396-0.658-1.973-0.404-0.565-0.966-0.999-1.615-1.246-0.636-0.271-1.338-0.351-2.018-0.227-0.695 0.126-1.336 0.457-1.84 0.951h-0l-0.091 0.091c-0.124 0.124-0.271 0.222-0.433 0.289s-0.335 0.102-0.511 0.102-0.349-0.035-0.511-0.102c-0.162-0.067-0.309-0.165-0.433-0.289l-0.001-0.001c-0.124-0.124-0.222-0.271-0.289-0.433s-0.102-0.335-0.102-0.511c0-0.175 0.035-0.349 0.102-0.511s0.165-0.309 0.289-0.433l0.081-0.081 0 0 0.010-0.011c0.494-0.505 0.825-1.146 0.951-1.84 0.126-0.692 0.042-1.406-0.241-2.051-0.272-0.631-0.721-1.168-1.294-1.547-0.575-0.381-1.248-0.585-1.937-0.587v0h-0.232c-0.354 0-0.693-0.141-0.943-0.391s-0.391-0.589-0.391-0.943c0-0.354 0.14-0.693 0.391-0.943s0.589-0.391 0.943-0.391h0.12l0.031-0c0.709-0.017 1.396-0.246 1.973-0.658 0.565-0.404 0.998-0.966 1.246-1.615 0.272-0.636 0.351-1.338 0.227-2.018-0.126-0.695-0.457-1.336-0.951-1.84l0-0-0.091-0.091c-0.124-0.124-0.222-0.271-0.289-0.433s-0.102-0.335-0.102-0.511c0-0.175 0.035-0.349 0.102-0.511s0.165-0.309 0.289-0.433l0.001-0.001c0.124-0.124 0.271-0.222 0.433-0.289s0.335-0.102 0.511-0.102c0.175 0 0.349 0.035 0.511 0.102s0.309 0.165 0.433 0.289l0.081 0.081-0 0 0.011 0.010c0.505 0.494 1.146 0.825 1.84 0.951 0.603 0.109 1.223 0.060 1.798-0.142 0.121-0.016 0.24-0.048 0.352-0.097 0.633-0.271 1.174-0.722 1.554-1.297s0.585-1.248 0.587-1.937v0-0.232c0-0.354 0.141-0.693 0.391-0.943zM27.087 20.538l-1.22-0.538 1.225 0.525c0.067-0.155 0.177-0.288 0.318-0.381s0.305-0.143 0.473-0.144h0.117c1.061 0 2.078-0.421 2.828-1.172s1.172-1.767 1.172-2.828c0-1.061-0.421-2.078-1.172-2.828s-1.767-1.172-2.828-1.172h-0.223c-0.168-0.001-0.333-0.051-0.473-0.144-0.095-0.063-0.175-0.143-0.239-0.236-0.019-0.091-0.048-0.18-0.085-0.265-0.070-0.158-0.091-0.334-0.060-0.505 0.031-0.169 0.11-0.324 0.229-0.447l0.074-0.074c0.372-0.371 0.667-0.812 0.868-1.298s0.305-1.006 0.305-1.532-0.104-1.046-0.305-1.532c-0.201-0.485-0.496-0.926-0.867-1.297s-0.813-0.667-1.298-0.868-1.006-0.305-1.532-0.305c-0.526 0-1.046 0.104-1.532 0.305s-0.927 0.496-1.298 0.868l-0.073 0.073c-0.123 0.119-0.279 0.199-0.447 0.229-0.17 0.031-0.346 0.010-0.505-0.060v-0l-0.013-0.006c-0.155-0.067-0.288-0.177-0.381-0.318s-0.143-0.305-0.144-0.473v-0.117c0-1.061-0.421-2.078-1.172-2.828s-1.768-1.172-2.828-1.172c-1.061 0-2.078 0.421-2.828 1.172s-1.172 1.768-1.172 2.828v0.223c-0.001 0.168-0.051 0.333-0.144 0.473-0.063 0.095-0.143 0.175-0.236 0.239-0.091 0.019-0.18 0.048-0.265 0.085-0.158 0.070-0.334 0.091-0.505 0.060-0.169-0.031-0.324-0.11-0.447-0.229l-0.073-0.073c-0.371-0.372-0.813-0.667-1.298-0.868s-1.006-0.305-1.532-0.305c-0.526 0-1.046 0.104-1.532 0.305s-0.926 0.496-1.298 0.868c-0.372 0.371-0.667 0.812-0.868 1.298s-0.305 1.006-0.305 1.532 0.104 1.046 0.305 1.532c0.201 0.486 0.496 0.927 0.868 1.298l0.073 0.073c0.119 0.123 0.199 0.279 0.229 0.447 0.031 0.17 0.010 0.346-0.060 0.505-0.011 0.026-0.022 0.052-0.032 0.078-0.060 0.163-0.168 0.305-0.309 0.406-0.138 0.099-0.302 0.155-0.472 0.161h-0.101c-1.061 0-2.078 0.421-2.828 1.172s-1.172 1.768-1.172 2.828c0 1.061 0.421 2.078 1.172 2.828s1.768 1.172 2.828 1.172h0.223c0.168 0.001 0.333 0.051 0.473 0.144s0.251 0.226 0.318 0.381l-0 0 0.006 0.013c0.070 0.158 0.091 0.334 0.060 0.505-0.031 0.169-0.11 0.324-0.229 0.447l-0.073 0.073c-0.372 0.371-0.667 0.813-0.868 1.298s-0.305 1.006-0.305 1.532c0 0.526 0.104 1.046 0.305 1.532s0.496 0.927 0.868 1.298c0.371 0.371 0.812 0.666 1.297 0.867s1.006 0.305 1.532 0.305 1.046-0.104 1.532-0.305c0.485-0.201 0.926-0.496 1.298-0.868l0.001-0.001 0.073-0.073c0.123-0.119 0.279-0.199 0.447-0.229 0.17-0.031 0.346-0.010 0.505 0.060 0.026 0.011 0.052 0.022 0.078 0.031 0.163 0.060 0.305 0.168 0.406 0.309 0.099 0.138 0.155 0.302 0.161 0.472v0.101c0 1.061 0.421 2.078 1.172 2.828s1.768 1.172 2.828 1.172c1.061 0 2.078-0.421 2.828-1.172s1.172-1.767 1.172-2.828v-0.223c0.001-0.168 0.051-0.333 0.144-0.473s0.226-0.251 0.381-0.318l0 0 0.013-0.006c0.158-0.070 0.334-0.091 0.505-0.060 0.169 0.031 0.324 0.11 0.447 0.229l0.074 0.074c0.371 0.372 0.812 0.667 1.298 0.868s1.006 0.305 1.532 0.305 1.046-0.104 1.532-0.305c0.485-0.201 0.926-0.496 1.298-0.868-0 0-0 0-0.001 0.001l-0.942-0.943 0.943 0.942c-0 0-0 0-0.001 0.001 0.372-0.371 0.667-0.812 0.868-1.298s0.305-1.006 0.305-1.532-0.104-1.046-0.305-1.532c-0.201-0.485-0.496-0.926-0.868-1.298l-0.074-0.074c-0.119-0.123-0.199-0.279-0.229-0.447-0.031-0.17-0.010-0.346 0.060-0.505zM13.333 16c0-1.473 1.194-2.667 2.667-2.667s2.667 1.194 2.667 2.667c0 1.473-1.194 2.667-2.667 2.667s-2.667-1.194-2.667-2.667zM16 10.667c-2.946 0-5.333 2.388-5.333 5.333s2.388 5.333 5.333 5.333c2.945 0 5.333-2.388 5.333-5.333s-2.388-5.333-5.333-5.333z"></path>
</svg>
