<!-- Generated by IcoMoon.io -->
<svg version="1.1" xmlns="http://www.w3.org/2000/svg" width="32" height="32" viewBox="0 0 32 32">
<title>users</title>
<path d="M8 9.333c0-2.209 1.791-4 4-4s4 1.791 4 4-1.791 4-4 4c-2.209 0-4-1.791-4-4zM12 2.667c-3.682 0-6.667 2.985-6.667 6.667s2.985 6.667 6.667 6.667c3.682 0 6.667-2.985 6.667-6.667s-2.985-6.667-6.667-6.667zM6.667 18.667c-1.768 0-3.464 0.702-4.714 1.953s-1.953 2.946-1.953 4.714v2.667c0 0.736 0.597 1.333 1.333 1.333s1.333-0.597 1.333-1.333v-2.667c0-1.061 0.421-2.078 1.172-2.828s1.768-1.172 2.828-1.172h10.667c1.061 0 2.078 0.421 2.828 1.172s1.172 1.767 1.172 2.828v2.667c0 0.736 0.597 1.333 1.333 1.333s1.333-0.597 1.333-1.333v-2.667c0-1.768-0.702-3.464-1.953-4.714s-2.946-1.953-4.714-1.953h-10.667zM25.376 19.84c0.184-0.713 0.911-1.142 1.624-0.958 1.43 0.369 2.697 1.203 3.602 2.371s1.397 2.602 1.398 4.079v2.668c0 0.736-0.597 1.333-1.333 1.333s-1.333-0.597-1.333-1.333v-2.666c-0.001-0.886-0.296-1.747-0.839-2.447s-1.303-1.201-2.161-1.422c-0.713-0.184-1.142-0.911-0.958-1.624zM21.664 2.882c-0.713-0.183-1.44 0.248-1.622 0.961s0.248 1.44 0.961 1.622c0.86 0.22 1.623 0.721 2.168 1.422s0.84 1.565 0.84 2.453-0.296 1.751-0.84 2.453c-0.545 0.702-1.307 1.202-2.168 1.422-0.713 0.183-1.144 0.909-0.961 1.622s0.909 1.144 1.622 0.961c1.434-0.367 2.705-1.201 3.613-2.371s1.4-2.608 1.4-4.088-0.493-2.918-1.4-4.088c-0.908-1.169-2.179-2.003-3.613-2.371z"></path>
</svg>
